<?xml version="1.0" standalone="no"?>
<!DOCTYPE svg PUBLIC "-//W3C//DTD SVG 20010904//EN"
 "http://www.w3.org/TR/2001/REC-SVG-20010904/DTD/svg10.dtd">
<svg version="1.0" xmlns="http://www.w3.org/2000/svg"
 width="1300.000000pt" height="1300.000000pt" viewBox="0 0 1300.000000 1300.000000"
 preserveAspectRatio="xMidYMid meet">
<metadata>
Created by potrace 1.15, written by Peter Selinger 2001-2017
</metadata>
<g transform="translate(0.000000,1300.000000) scale(0.100000,-0.100000)"
fill="#000000" stroke="none">
<path d="M6815 9265 c-111 -59 -132 -190 -43 -272 41 -37 90 -43 387 -43 269
0 285 -1 321 -21 48 -27 53 -37 148 -274 44 -110 101 -249 125 -310 25 -60 47
-119 49 -130 3 -20 -3 -20 -1410 -23 l-1413 -2 -48 52 c-27 29 -62 69 -78 88
-15 20 -55 65 -89 100 -33 36 -96 106 -139 155 -43 50 -89 102 -102 116 l-23
26 32 -5 c18 -2 259 -42 534 -88 276 -46 518 -84 538 -84 77 0 134 44 158 121
20 69 -18 150 -84 182 -29 14 -550 105 -1068 188 -206 33 -254 30 -338 -18
-125 -73 -181 -239 -127 -370 15 -36 67 -97 340 -400 99 -110 192 -213 207
-231 l27 -31 -71 -178 c-39 -98 -85 -216 -103 -263 -18 -47 -72 -186 -119
-310 -48 -124 -103 -265 -122 -315 -19 -49 -43 -110 -53 -135 -11 -25 -47
-117 -82 -205 -104 -268 -239 -616 -269 -695 -16 -41 -56 -145 -89 -229 -82
-207 -81 -262 6 -328 l36 -28 1106 0 c1027 0 1111 1 1179 18 246 59 447 257
513 503 28 103 30 271 6 364 -23 89 -88 214 -145 279 -146 168 -234 266 -310
345 -47 49 -79 85 -71 81 7 -5 -43 53 -111 129 -69 76 -143 159 -165 185 -22
26 -101 114 -175 196 -74 82 -183 204 -242 271 -59 67 -111 125 -117 128 -5 4
-20 20 -31 36 l-21 30 1338 0 1338 0 137 -343 c216 -536 450 -1116 523 -1297
37 -91 94 -231 126 -313 32 -81 67 -166 77 -190 11 -23 45 -109 77 -191 64
-164 95 -210 155 -226 46 -12 111 0 148 27 35 26 62 81 62 127 0 40 -6 56
-345 896 -92 228 -180 447 -195 485 -15 39 -62 156 -105 260 -142 350 -247
609 -280 695 -32 84 -64 162 -265 655 -56 138 -111 275 -122 305 -47 130 -112
273 -147 322 -47 68 -141 139 -222 169 -61 22 -78 23 -394 26 -287 3 -334 2
-360 -12z m-1678 -1742 c87 -97 196 -219 242 -272 47 -53 157 -177 245 -275
89 -99 223 -250 299 -335 77 -86 173 -194 215 -240 43 -46 98 -111 124 -143
157 -195 94 -480 -131 -591 l-66 -32 -957 -3 -958 -2 21 52 c12 29 32 82 46
118 13 36 35 93 49 128 50 128 74 190 124 322 51 132 108 279 215 550 30 74
88 225 130 335 93 241 202 521 215 553 6 13 14 20 20 17 5 -3 80 -85 167 -182z"/>
<path d="M2741 6738 c-81 -23 -293 -293 -394 -500 -123 -252 -177 -484 -177
-766 0 -412 117 -756 368 -1087 102 -134 342 -343 487 -425 596 -337 1291
-316 1854 55 110 72 235 177 275 229 70 92 31 223 -75 255 -69 21 -109 7 -194
-67 -223 -195 -449 -307 -724 -362 -102 -20 -134 -22 -290 -17 -254 8 -411 48
-620 158 -347 182 -619 522 -710 888 -53 212 -62 457 -23 637 59 273 185 518
364 710 46 48 63 75 68 105 14 78 -22 147 -94 180 -46 21 -65 22 -115 7z"/>
<path d="M7445 5616 c-44 -20 -85 -68 -95 -111 -9 -40 3 -252 20 -343 101
-555 461 -1026 970 -1270 144 -68 246 -104 380 -131 263 -54 500 -53 752 3
384 87 722 297 977 610 155 189 284 456 339 701 39 171 58 365 42 424 -32 121
-175 169 -265 90 -42 -38 -52 -68 -59 -198 -39 -663 -531 -1212 -1190 -1326
-192 -33 -483 -10 -666 52 -301 102 -561 297 -728 547 -160 239 -228 442 -250
752 -10 128 -27 164 -96 195 -48 22 -89 23 -131 5z"/>
</g>
</svg>
